<?xml version="1.0" encoding="utf-8"?>
<!-- Generator: Adobe Illustrator 16.0.4, SVG Export Plug-In . SVG Version: 6.00 Build 0)  -->
<!DOCTYPE svg PUBLIC "-//W3C//DTD SVG 1.1//EN" "http://www.w3.org/Graphics/SVG/1.1/DTD/svg11.dtd">
<svg version="1.1" id="Layer_1" xmlns="http://www.w3.org/2000/svg" xmlns:xlink="http://www.w3.org/1999/xlink" x="0px" y="0px"
	 width="378.793px" height="198.189px" viewBox="0 0 378.793 198.189" enable-background="new 0 0 378.793 198.189"
	 xml:space="preserve">
<g enable-background="new    ">
	<path fill="#8E0303" d="M109.197,133.943H94.191L69.969,91.82h-0.343c0.482,7.439,0.724,12.746,0.724,15.92v26.203H59.8V78.261
		h14.892l24.185,41.704h0.267c-0.381-7.236-0.571-12.353-0.571-15.349V78.261h10.626V133.943z"/>
	<path fill="#8E0303" d="M185.687,106.026c0,9.217-2.285,16.301-6.855,21.252s-11.121,7.427-19.652,7.427
		s-15.082-2.476-19.652-7.427s-6.855-12.061-6.855-21.328s2.291-16.345,6.875-21.233c4.583-4.887,11.153-7.331,19.709-7.331
		c8.556,0,15.101,2.463,19.633,7.389S185.687,96.784,185.687,106.026z M145.049,106.026c0,6.221,1.181,10.905,3.542,14.054
		s5.89,4.723,10.588,4.723c9.42,0,14.13-6.259,14.13-18.776c0-12.543-4.685-18.814-14.054-18.814c-4.698,0-8.24,1.581-10.626,4.741
		C146.243,95.115,145.049,99.805,145.049,106.026z"/>
	<path fill="#8E0303" d="M220.968,112.577v21.366h-11.807V78.261h16.225c7.565,0,13.165,1.378,16.796,4.133
		s5.446,6.938,5.446,12.549c0,3.275-0.901,6.189-2.704,8.74c-1.803,2.553-4.355,4.552-7.655,5.999
		c8.379,12.518,13.838,20.604,16.377,24.261h-13.102l-13.292-21.366H220.968z M220.968,102.979h3.809
		c3.732,0,6.487-0.622,8.265-1.866s2.666-3.199,2.666-5.865c0-2.641-0.908-4.52-2.723-5.637c-1.816-1.117-4.628-1.676-8.437-1.676
		h-3.58V102.979z"/>
	<path fill="#8E0303" d="M294.067,133.943h-11.807V88.088h-15.12v-9.826h42.047v9.826h-15.12V133.943z"/>
	<path fill="#8E0303" d="M375.317,133.943H363.55v-24.032h-22.052v24.032h-11.807V78.261h11.807v21.823h22.052V78.261h11.768
		V133.943z"/>
</g>
<g>
	<path fill="#2B2B2B" d="M8.923,198.189c0.438-10.179,0.108-38.387,0.283-46.833c0.123-5.854,0.064-11.714,0.086-17.571
		c0.001-0.962-0.999-1.924-0.999-2.779c-1.518-0.482-2.899-0.869-4.247-1.359c-3.112-1.135-4.537-4.161-1.389-6.794
		c-0.545-0.57-1.058-1.187-1.648-1.709c-0.5-0.443-0.653-0.882-0.332-1.48c0.083-0.153,0.221-0.414,0.163-0.495
		c-0.58-0.769-0.285-1.62-0.274-2.442c0.001-0.149-0.022-0.323-0.099-0.445c-0.719-1.115-0.66-1.663,0.526-2.129
		c1.635-0.643,2.614-1.979,3.656-2.981c-0.128-0.521-0.277-0.897-0.307-1.277c-0.044-0.625,0.057-1.264-0.027-1.881
		c-0.145-1.062,0.395-1.587,1.313-1.816c1.294-0.321,2.598-0.587,4.014-0.905c-0.172-1.786-0.349-3.62-0.526-5.453
		c-0.002-0.033-0.012-0.061-0.019-0.092c-0.186-0.834,0.24-1.324,0.959-1.592c0.515-0.189,1.06-0.296,1.617-0.446
		c0-0.438,0-0.812,0-1.187c0-10.556-0.005-21.111,0.01-31.668c0-0.952-0.001-1.832-0.779-2.563c-0.622-0.587-0.545-1.31-0.002-1.936
		c0.572-0.659,1.143-1.335,1.798-1.907c0.5-0.432,0.669-0.877,0.667-1.526c-0.023-6.64-0.023-13.28,0-19.92
		c0.002-0.506,0.205-1.018,0.349-1.514c0.103-0.36,0.378-0.697,0.383-1.043c0.037-2.226-0.025-4.45,0.048-6.672
		c0.022-0.642,0.378-1.275,0.608-1.901c0.139-0.374,0.466-0.725,0.47-1.089c0.039-5.98,0.033-11.963,0.061-17.944
		c0.002-0.481,0.167-0.966,0.284-1.445c0.121-0.496,0.355-0.979,0.397-1.479c0.109-1.298,0.14-2.604,0.2-3.908
		c0.251,0,0.502,0,0.753,0c0.08,1.36,0.155,2.726,0.243,4.086c0.023,0.334,0.071,0.67,0.151,0.996
		c0.16,0.643,0.501,1.277,0.505,1.923c0.04,5.887,0.02,11.773,0.033,17.661c0.003,0.345,0.042,0.85,0.26,1.003
		c0.752,0.527,0.867,1.258,0.869,2.057c0.008,2.255,0.002,4.512,0.006,6.765c0.002,0.249-0.052,0.637,0.077,0.722
		c0.966,0.632,0.711,1.604,0.715,2.471c0.02,5.981,0.057,11.967-0.021,17.946c-0.021,1.508,0.185,2.739,1.511,3.619
		c0.276,0.186,0.477,0.495,0.695,0.761c0.917,1.132,0.881,1.544,0.005,2.703c-0.29,0.381-0.518,0.924-0.519,1.395
		c-0.029,10.899-0.022,21.799-0.022,32.697c0,0.307,0,0.611,0,0.965c0.439,0.084,0.839,0.084,1.16,0.237
		c0.489,0.238,1.265,0.532,1.318,0.894c0.174,1.186,0.458,2.593-0.014,3.57c-0.511,1.06-0.194,1.962-0.404,2.883
		c1.143,0.212,2.195,0.356,3.22,0.613c2.003,0.502,2.104,0.665,2.104,2.727c0,0.345,0.038,0.696-0.009,1.033
		c-0.063,0.447-0.191,0.889-0.315,1.432c1.066,1.09,2.098,2.417,3.758,3.071c1.053,0.415,1.11,1.049,0.462,2.062
		c-0.092,0.146-0.177,0.382-0.122,0.521c0.446,1.137-0.673,2.28,0.033,3.425c0.08,0.132-0.156,0.511-0.316,0.724
		c-0.537,0.706-1.105,1.388-1.681,2.106c-0.11-0.082-0.006-0.012,0.091,0.067c2.575,2.143,1.605,5.152-1.092,6.271
		c-1.15,0.48-2.331,0.938-3.543,1.18c-1.067,0.211-2.303,0.691-2.288,1.699c0.144,9.892,0.206,19.786,0.362,29.673
		c0.075,4.693-0.168,31.547,0.053,36.231"/>
</g>
<g enable-background="new    ">
	<path fill="#475DA9" d="M74.637,177.575c0.984,0.264,1.902,0.668,2.755,1.213c0.853,0.545,1.595,1.248,2.228,2.109
		c0.457,0.65,0.787,1.406,0.989,2.268c0.202,0.861,0.303,1.837,0.303,2.927c0,1.107-0.115,2.079-0.343,2.914
		c-0.229,0.835-0.563,1.577-1.002,2.228c-0.458,0.633-0.993,1.178-1.608,1.635c-0.616,0.457-1.279,0.84-1.991,1.147
		s-1.459,0.545-2.241,0.711c-0.782,0.168-1.56,0.277-2.333,0.33c-0.387,0.018-0.835,0.039-1.345,0.066
		c-0.51,0.025-1.183,0.044-2.017,0.053c-0.835,0.009-1.898,0.013-3.19,0.013s-2.923-0.018-4.891-0.053l0.132-26.974
		c0-1.16-0.356-2.118-1.068-2.874s-1.648-1.283-2.808-1.582v-1.002c1.934,0,3.603-0.004,5.01-0.013
		c1.406-0.009,2.614-0.014,3.625-0.014c1.011,0,1.846,0.005,2.505,0.014s1.213,0.021,1.661,0.039s0.808,0.035,1.081,0.053
		c0.272,0.018,0.523,0.035,0.751,0.053c0.686,0.035,1.349,0.132,1.991,0.29c0.642,0.158,1.279,0.369,1.912,0.633
		c0.615,0.264,1.182,0.593,1.701,0.989c0.518,0.395,0.971,0.865,1.358,1.41c0.369,0.58,0.659,1.257,0.87,2.03s0.32,1.573,0.33,2.399
		c0.009,0.826-0.088,1.644-0.29,2.452c-0.202,0.809-0.514,1.512-0.936,2.109c-0.405,0.545-0.87,1.028-1.397,1.45
		S75.27,177.346,74.637,177.575z M71.658,191.866c0.844,0,1.617-0.162,2.32-0.487c0.703-0.325,1.309-0.773,1.819-1.346
		c0.51-0.57,0.905-1.238,1.187-2.004c0.281-0.764,0.422-1.604,0.422-2.518c0-0.896-0.171-1.723-0.514-2.479s-0.809-1.41-1.397-1.965
		c-0.589-0.553-1.275-0.983-2.057-1.291c-0.782-0.308-1.622-0.462-2.518-0.462h-7.594v12.551H71.658z M63.378,176.257h7.066
		c0.844,0,1.586-0.141,2.228-0.422c0.642-0.281,1.187-0.677,1.635-1.187s0.787-1.103,1.015-1.779
		c0.228-0.677,0.343-1.402,0.343-2.176c0-0.809-0.115-1.543-0.343-2.201c-0.229-0.66-0.567-1.227-1.015-1.701
		s-0.993-0.839-1.635-1.094c-0.642-0.255-1.384-0.383-2.228-0.383h-7.066V176.257z"/>
	<path fill="#475DA9" d="M103.25,162.177c1.53,0,3.012,0.202,4.446,0.606c1.434,0.403,2.771,0.971,4.011,1.699
		c1.24,0.729,2.37,1.603,3.391,2.621c1.021,1.02,1.891,2.147,2.613,3.386c0.721,1.238,1.284,2.582,1.688,4.031
		c0.405,1.449,0.607,2.946,0.607,4.491c0,1.563-0.202,3.062-0.607,4.492c-0.404,1.432-0.968,2.767-1.688,4.005
		c-0.722,1.238-1.592,2.362-2.613,3.372c-1.021,1.011-2.151,1.875-3.391,2.596c-1.24,0.72-2.578,1.277-4.011,1.673
		c-1.434,0.396-2.916,0.593-4.446,0.593c-1.565,0-3.07-0.197-4.513-0.593c-1.442-0.396-2.784-0.953-4.024-1.673
		c-1.24-0.721-2.371-1.585-3.391-2.596c-1.021-1.01-1.896-2.134-2.626-3.372c-0.73-1.238-1.297-2.573-1.702-4.005
		c-0.405-1.431-0.607-2.929-0.607-4.492c0-1.545,0.202-3.042,0.607-4.491c0.404-1.449,0.972-2.793,1.702-4.031
		c0.73-1.238,1.605-2.366,2.626-3.386c1.02-1.019,2.15-1.892,3.391-2.621c1.24-0.729,2.582-1.296,4.024-1.699
		C100.18,162.379,101.684,162.177,103.25,162.177z M103.223,192.472c1.847,0,3.594-0.355,5.239-1.068
		c1.645-0.711,3.079-1.678,4.302-2.9c1.223-1.221,2.195-2.649,2.916-4.284c0.722-1.635,1.083-3.375,1.083-5.221
		c0-1.863-0.361-3.621-1.083-5.273c-0.721-1.652-1.693-3.099-2.916-4.337c-1.223-1.24-2.657-2.22-4.302-2.94
		s-3.392-1.081-5.239-1.081c-1.883,0-3.647,0.36-5.292,1.081s-3.079,1.7-4.302,2.94c-1.223,1.238-2.195,2.685-2.917,4.337
		c-0.722,1.652-1.082,3.41-1.082,5.273c0,1.846,0.36,3.586,1.082,5.221c0.721,1.635,1.693,3.063,2.917,4.284
		c1.223,1.223,2.657,2.189,4.302,2.9C99.576,192.117,101.34,192.472,103.223,192.472z"/>
	<path fill="#475DA9" d="M155.776,195.689h-3.744l-4.535-10.336H133.18l-4.535,10.336h-3.771l12.524-28.846
		c0.053-0.229,0.096-0.431,0.132-0.606c0.035-0.176,0.053-0.325,0.053-0.448c0-0.562-0.334-1.011-1.002-1.345
		c-0.211-0.141-0.426-0.255-0.646-0.343c-0.22-0.088-0.409-0.158-0.567-0.211c-0.211-0.07-0.413-0.114-0.606-0.132v-1.134h4.456
		h2.162L155.776,195.689z M146.126,182.295l-5.801-13.184l-5.801,13.184H146.126z"/>
	<path fill="#475DA9" d="M185.325,194.925h-4.219l-6.144-12.63c-0.176,0.018-0.405,0.026-0.686,0.026
		c-0.281,0-0.593,0.005-0.936,0.013c-0.343,0.01-0.712,0.019-1.107,0.027s-0.778,0.013-1.147,0.013
		c-0.879,0.018-1.819,0.018-2.821,0l0.079,12.551l-3.56,0.053l0.053-26.868c0-0.721-0.075-1.283-0.224-1.688
		c-0.149-0.404-0.321-0.738-0.514-1.002c-0.123-0.123-0.255-0.255-0.396-0.396c-0.141-0.141-0.326-0.285-0.554-0.435
		c-0.229-0.149-0.514-0.295-0.857-0.436s-0.769-0.272-1.279-0.396v-1.081c2.725,0,5.098-0.018,7.119-0.053
		c2.021-0.035,3.797-0.021,5.326,0.039c1.529,0.062,2.87,0.186,4.021,0.369c1.151,0.186,2.219,0.497,3.204,0.937
		c0.703,0.316,1.332,0.726,1.885,1.226c0.554,0.502,1.032,1.112,1.437,1.833c0.439,0.65,0.769,1.441,0.989,2.373
		c0.22,0.932,0.33,1.969,0.33,3.111c0,1.23-0.128,2.329-0.382,3.296c-0.255,0.967-0.655,1.824-1.2,2.57
		c-0.545,0.748-1.239,1.398-2.083,1.951c-0.844,0.555-1.863,1.033-3.059,1.438L185.325,194.925z M175.2,179.684
		c0.896,0,1.744-0.18,2.544-0.54c0.8-0.36,1.499-0.866,2.096-1.517c0.597-0.65,1.072-1.441,1.424-2.373
		c0.352-0.932,0.527-1.969,0.527-3.111c0.017-1.143-0.149-2.153-0.501-3.032c-0.352-0.879-0.827-1.612-1.424-2.201
		c-0.598-0.589-1.301-1.033-2.109-1.332c-0.809-0.299-1.661-0.448-2.558-0.448h-6.855v14.555H175.2z"/>
	<path fill="#475DA9" d="M208.967,162.757c1.493,0,2.926,0.198,4.297,0.593c1.371,0.396,2.654,0.954,3.85,1.675
		s2.281,1.578,3.257,2.571s1.81,2.101,2.505,3.322c0.694,1.222,1.234,2.531,1.621,3.928c0.387,1.398,0.58,2.853,0.58,4.364
		s-0.193,2.971-0.58,4.377s-0.927,2.725-1.621,3.955c-0.695,1.23-1.529,2.347-2.505,3.349s-2.062,1.863-3.257,2.584
		s-2.479,1.279-3.85,1.674c-1.371,0.396-2.804,0.594-4.297,0.594H197.84v-27.686c-0.07-0.633-0.186-1.134-0.344-1.503
		s-0.342-0.659-0.553-0.87c-0.123-0.141-0.247-0.285-0.369-0.436c-0.123-0.148-0.3-0.307-0.527-0.475
		c-0.229-0.166-0.511-0.324-0.844-0.475c-0.334-0.148-0.774-0.294-1.318-0.435v-1.002l4.719-0.105h0.133H208.967z M208.201,192.472
		c1.881,0,3.621-0.33,5.221-0.988c1.6-0.66,2.98-1.573,4.141-2.742s2.064-2.566,2.715-4.193c0.65-1.625,0.977-3.405,0.977-5.339
		c0-1.916-0.326-3.683-0.977-5.3s-1.555-3.015-2.715-4.192s-2.541-2.092-4.141-2.742s-3.34-0.976-5.221-0.976h-6.539v20.725v5.748
		H208.201z"/>
	<path fill="#475DA9" d="M256.128,194.925h-4.219l-6.144-12.63c-0.176,0.018-0.404,0.026-0.686,0.026s-0.594,0.005-0.936,0.013
		c-0.344,0.01-0.713,0.019-1.107,0.027c-0.396,0.009-0.778,0.013-1.147,0.013c-0.88,0.018-1.819,0.018-2.821,0l0.079,12.551
		l-3.56,0.053l0.053-26.868c0-0.721-0.075-1.283-0.225-1.688c-0.148-0.404-0.32-0.738-0.514-1.002
		c-0.123-0.123-0.255-0.255-0.396-0.396c-0.142-0.141-0.325-0.285-0.554-0.435s-0.514-0.295-0.857-0.436
		c-0.342-0.141-0.769-0.272-1.278-0.396v-1.081c2.725,0,5.098-0.018,7.119-0.053c2.021-0.035,3.797-0.021,5.326,0.039
		c1.529,0.062,2.87,0.186,4.021,0.369c1.151,0.186,2.219,0.497,3.204,0.937c0.702,0.316,1.331,0.726,1.886,1.226
		c0.553,0.502,1.031,1.112,1.437,1.833c0.438,0.65,0.769,1.441,0.989,2.373c0.219,0.932,0.329,1.969,0.329,3.111
		c0,1.23-0.128,2.329-0.382,3.296c-0.256,0.967-0.656,1.824-1.2,2.57c-0.545,0.748-1.239,1.398-2.083,1.951
		c-0.844,0.555-1.863,1.033-3.059,1.438L256.128,194.925z M246.003,179.684c0.896,0,1.744-0.18,2.544-0.54
		c0.801-0.36,1.499-0.866,2.097-1.517c0.597-0.65,1.071-1.441,1.424-2.373c0.352-0.932,0.527-1.969,0.527-3.111
		c0.017-1.143-0.149-2.153-0.501-3.032s-0.826-1.612-1.424-2.201s-1.301-1.033-2.109-1.332s-1.661-0.448-2.558-0.448h-6.855v14.555
		H246.003z"/>
	<path fill="#475DA9" d="M281.707,162.177c1.531,0,3.013,0.202,4.447,0.606c1.434,0.403,2.771,0.971,4.011,1.699
		c1.239,0.729,2.37,1.603,3.391,2.621c1.021,1.02,1.892,2.147,2.612,3.386s1.285,2.582,1.689,4.031s0.606,2.946,0.606,4.491
		c0,1.563-0.202,3.062-0.606,4.492c-0.404,1.432-0.969,2.767-1.689,4.005s-1.592,2.362-2.612,3.372
		c-1.021,1.011-2.151,1.875-3.391,2.596c-1.24,0.72-2.577,1.277-4.011,1.673c-1.435,0.396-2.916,0.593-4.447,0.593
		c-1.564,0-3.069-0.197-4.512-0.593c-1.443-0.396-2.785-0.953-4.024-1.673c-1.24-0.721-2.37-1.585-3.391-2.596
		c-1.021-1.01-1.896-2.134-2.626-3.372s-1.297-2.573-1.701-4.005c-0.405-1.431-0.607-2.929-0.607-4.492
		c0-1.545,0.202-3.042,0.607-4.491c0.404-1.449,0.971-2.793,1.701-4.031s1.605-2.366,2.626-3.386
		c1.021-1.019,2.15-1.892,3.391-2.621c1.239-0.729,2.581-1.296,4.024-1.699C278.638,162.379,280.143,162.177,281.707,162.177z
		 M281.682,192.472c1.847,0,3.594-0.355,5.238-1.068c1.645-0.711,3.079-1.678,4.303-2.9c1.223-1.221,2.194-2.649,2.916-4.284
		c0.721-1.635,1.082-3.375,1.082-5.221c0-1.863-0.361-3.621-1.082-5.273c-0.722-1.652-1.693-3.099-2.916-4.337
		c-1.224-1.24-2.658-2.22-4.303-2.94s-3.392-1.081-5.238-1.081c-1.883,0-3.647,0.36-5.293,1.081c-1.645,0.721-3.078,1.7-4.301,2.94
		c-1.224,1.238-2.195,2.685-2.917,4.337s-1.082,3.41-1.082,5.273c0,1.846,0.36,3.586,1.082,5.221s1.693,3.063,2.917,4.284
		c1.223,1.223,2.656,2.189,4.301,2.9C278.034,192.117,279.799,192.472,281.682,192.472z"/>
	<path fill="#475DA9" d="M319.799,162.177c1.53,0,3.012,0.202,4.446,0.606c1.434,0.403,2.771,0.971,4.011,1.699
		c1.24,0.729,2.371,1.603,3.391,2.621c1.021,1.02,1.892,2.147,2.613,3.386c0.721,1.238,1.284,2.582,1.688,4.031
		c0.405,1.449,0.606,2.946,0.606,4.491c0,1.563-0.201,3.062-0.606,4.492c-0.404,1.432-0.968,2.767-1.688,4.005
		c-0.722,1.238-1.592,2.362-2.613,3.372c-1.02,1.011-2.15,1.875-3.391,2.596c-1.24,0.72-2.577,1.277-4.011,1.673
		c-1.435,0.396-2.916,0.593-4.446,0.593c-1.565,0-3.07-0.197-4.513-0.593s-2.784-0.953-4.024-1.673
		c-1.24-0.721-2.37-1.585-3.391-2.596c-1.02-1.01-1.895-2.134-2.625-3.372s-1.298-2.573-1.702-4.005
		c-0.405-1.431-0.606-2.929-0.606-4.492c0-1.545,0.201-3.042,0.606-4.491c0.404-1.449,0.972-2.793,1.702-4.031
		s1.605-2.366,2.625-3.386c1.021-1.019,2.15-1.892,3.391-2.621c1.24-0.729,2.582-1.296,4.024-1.699
		C316.729,162.379,318.233,162.177,319.799,162.177z M319.772,192.472c1.847,0,3.594-0.355,5.239-1.068
		c1.645-0.711,3.078-1.678,4.302-2.9c1.223-1.221,2.194-2.649,2.916-4.284s1.083-3.375,1.083-5.221c0-1.863-0.361-3.621-1.083-5.273
		s-1.693-3.099-2.916-4.337c-1.224-1.24-2.657-2.22-4.302-2.94c-1.646-0.721-3.393-1.081-5.239-1.081
		c-1.883,0-3.647,0.36-5.292,1.081s-3.079,1.7-4.302,2.94c-1.224,1.238-2.195,2.685-2.917,4.337
		c-0.721,1.652-1.082,3.41-1.082,5.273c0,1.846,0.361,3.586,1.082,5.221c0.722,1.635,1.693,3.063,2.917,4.284
		c1.223,1.223,2.657,2.189,4.302,2.9C316.125,192.117,317.89,192.472,319.772,192.472z"/>
	<path fill="#475DA9" d="M374.303,162.73v32.827h-3.506v-29.32L361.805,193h-3.611l-8.992-26.763v10.441v9.782v9.097h-3.506v-0.105
		h-0.105v-27.158c0-0.738-0.07-1.313-0.211-1.728c-0.142-0.412-0.326-0.742-0.555-0.988c-0.123-0.123-0.254-0.259-0.395-0.408
		c-0.142-0.149-0.321-0.299-0.541-0.449c-0.221-0.148-0.501-0.289-0.844-0.422c-0.343-0.131-0.77-0.259-1.279-0.382v-1.081
		l9.889-0.105l8.279,25.972l8.41-25.972H374.303z"/>
</g>
<g enable-background="new    ">
	<path fill="#475DA9" d="M63.138,41.35c0.839,0.996,1.792,1.865,2.856,2.607c1.064,0.742,2.207,1.318,3.428,1.729
		c1.22,0.41,2.476,0.659,3.765,0.747s2.588-0.024,3.896-0.337c0.605-0.137,1.293-0.391,2.065-0.762
		c0.771-0.371,1.538-0.781,2.3-1.23s1.499-0.908,2.212-1.377c0.713-0.469,1.304-0.889,1.772-1.26v4.248
		c-1.68,1.406-3.53,2.49-5.552,3.252s-4.136,1.143-6.343,1.143c-1.641-0.02-3.213-0.249-4.717-0.688
		c-1.504-0.439-2.915-1.045-4.233-1.816s-2.515-1.699-3.589-2.783c-1.074-1.084-1.992-2.285-2.754-3.604s-1.353-2.734-1.772-4.248
		c-0.42-1.514-0.63-3.091-0.63-4.731c0-0.938,0.078-1.826,0.234-2.666c0.156-0.84,0.322-1.592,0.498-2.256s0.341-1.191,0.498-1.582
		c0.156-0.391,0.234-0.605,0.234-0.645c0.625-1.445,1.425-2.788,2.402-4.028c0.977-1.24,2.09-2.319,3.34-3.237
		c1.25-0.918,2.607-1.67,4.072-2.256s2.998-0.977,4.6-1.172c0.781-0.059,1.611-0.073,2.49-0.044s1.772,0.127,2.681,0.293
		s1.826,0.42,2.754,0.762c0.927,0.342,1.841,0.786,2.739,1.333c0.156-0.117,0.322-0.249,0.498-0.396s0.341-0.337,0.498-0.571
		c0.156-0.234,0.317-0.532,0.483-0.894c0.166-0.361,0.327-0.835,0.483-1.421h1.084v9.932h-0.439c-0.664-0.781-1.431-1.509-2.3-2.183
		c-0.869-0.674-1.792-1.25-2.769-1.729c-0.977-0.479-1.992-0.854-3.047-1.128s-2.12-0.41-3.193-0.41
		c-1.953,0-3.775,0.371-5.464,1.113c-1.689,0.742-3.149,1.787-4.38,3.135c-1.27,1.328-2.256,2.847-2.959,4.556
		s-1.055,3.54-1.055,5.493c0,1.699,0.288,3.335,0.864,4.907C61.267,38.719,62.083,40.12,63.138,41.35z"/>
	<path fill="#475DA9" d="M111.468,12.786c1.7,0,3.347,0.225,4.94,0.674c1.593,0.448,3.079,1.078,4.457,1.888
		c1.378,0.811,2.634,1.781,3.768,2.913c1.133,1.132,2.101,2.386,2.902,3.762s1.427,2.869,1.876,4.479
		c0.45,1.61,0.674,3.273,0.674,4.991c0,1.736-0.225,3.4-0.674,4.991s-1.075,3.073-1.876,4.449c-0.801,1.377-1.769,2.625-2.902,3.747
		c-1.134,1.123-2.39,2.083-3.768,2.884c-1.378,0.8-2.864,1.42-4.457,1.858c-1.593,0.439-3.24,0.659-4.94,0.659
		c-1.739,0-3.411-0.22-5.014-0.659c-1.604-0.438-3.094-1.059-4.472-1.858c-1.378-0.801-2.634-1.761-3.768-2.884
		c-1.134-1.122-2.106-2.37-2.917-3.747c-0.812-1.376-1.441-2.858-1.891-4.449s-0.674-3.255-0.674-4.991
		c0-1.718,0.225-3.381,0.674-4.991c0.45-1.609,1.08-3.103,1.891-4.479c0.811-1.376,1.783-2.63,2.917-3.762s2.39-2.103,3.768-2.913
		c1.378-0.81,2.868-1.439,4.472-1.888C108.057,13.01,109.729,12.786,111.468,12.786z M111.438,46.448
		c2.053,0,3.993-0.396,5.821-1.187c1.828-0.791,3.421-1.865,4.78-3.223c1.358-1.357,2.439-2.944,3.24-4.761
		c0.802-1.816,1.203-3.75,1.203-5.801c0-2.07-0.401-4.023-1.203-5.859c-0.801-1.836-1.882-3.442-3.24-4.819
		c-1.359-1.377-2.952-2.466-4.78-3.267c-1.828-0.801-3.768-1.201-5.821-1.201c-2.092,0-4.052,0.4-5.88,1.201
		c-1.828,0.801-3.421,1.89-4.78,3.267c-1.358,1.377-2.439,2.983-3.24,4.819c-0.802,1.836-1.202,3.789-1.202,5.859
		c0,2.051,0.4,3.984,1.202,5.801c0.801,1.816,1.882,3.403,3.24,4.761c1.359,1.357,2.952,2.432,4.78,3.223
		C107.386,46.052,109.347,46.448,111.438,46.448z"/>
	<path fill="#475DA9" d="M169.642,49.817h-3.047l-22.764-28.77v28.887h-3.252V17.591c-0.137-0.488-0.371-0.938-0.703-1.348
		c-0.293-0.332-0.723-0.654-1.289-0.967c-0.567-0.312-1.318-0.488-2.256-0.527v-1.348l7.412,0.029l22.734,28.213V13.43h3.164V49.817
		z"/>
	<path fill="#475DA9" d="M199.939,17.796c-1.055-0.43-2.173-0.845-3.354-1.245c-1.183-0.4-2.358-0.684-3.53-0.85
		s-2.324-0.161-3.457,0.015s-2.178,0.625-3.135,1.348c-0.586,0.488-1.021,1.055-1.304,1.699c-0.283,0.645-0.425,1.348-0.425,2.109
		c0,1.016,0.205,1.875,0.615,2.578s0.938,1.377,1.582,2.021c1.015,0.742,2.061,1.396,3.135,1.963s2.153,1.123,3.237,1.67
		s2.128,1.123,3.135,1.729c1.006,0.605,1.948,1.309,2.827,2.109c0.781,0.762,1.41,1.611,1.89,2.549
		c0.479,0.938,0.806,1.909,0.981,2.915s0.19,2.026,0.044,3.062s-0.454,2.021-0.923,2.959c-0.508,1.094-1.221,2.007-2.139,2.739
		s-1.919,1.313-3.003,1.743s-2.222,0.737-3.413,0.923s-2.324,0.278-3.398,0.278c-1.504,0-2.959-0.112-4.365-0.337
		s-2.793-0.483-4.16-0.776v-3.604c1.523,0.684,3.051,1.24,4.585,1.67c1.533,0.43,3.11,0.645,4.731,0.645
		c1.152,0,2.188-0.137,3.105-0.41s1.699-0.684,2.344-1.23c1.328-1.211,1.992-2.891,1.992-5.039c0-0.977-0.21-1.895-0.63-2.754
		c-0.421-0.859-0.981-1.582-1.685-2.168c-0.996-0.684-2.031-1.309-3.105-1.875s-2.139-1.128-3.193-1.685s-2.07-1.143-3.047-1.758
		c-0.977-0.615-1.865-1.323-2.666-2.124c-1.836-1.836-2.754-3.994-2.754-6.475c0-2.852,1.025-5.039,3.076-6.562
		c0.722-0.566,1.519-1.021,2.388-1.362c0.869-0.342,1.777-0.596,2.725-0.762c0.947-0.166,1.923-0.259,2.93-0.278
		c1.006-0.02,1.992,0.01,2.959,0.088s1.914,0.19,2.842,0.337c0.927,0.146,1.782,0.308,2.563,0.483V17.796z"/>
	<path fill="#475DA9" d="M236.507,46.653v3.369H213.86V18.997c-0.078-0.762-0.195-1.348-0.352-1.758
		c-0.157-0.41-0.439-0.801-0.85-1.172c-0.274-0.273-0.664-0.562-1.172-0.864c-0.509-0.303-1.183-0.552-2.021-0.747l-0.029-1.143
		h27.07v3.662h-18.516v12.803h16.494v3.398h-16.494v13.477H236.507z"/>
	<path fill="#475DA9" d="M278.318,49.817h-3.047l-22.764-28.77v28.887h-3.252V17.591c-0.137-0.488-0.371-0.938-0.703-1.348
		c-0.293-0.332-0.723-0.654-1.289-0.967s-1.318-0.488-2.256-0.527v-1.348l7.412,0.029l22.734,28.213V13.43h3.164V49.817z"/>
	<path fill="#475DA9" d="M308.616,17.796c-1.055-0.43-2.173-0.845-3.354-1.245s-2.358-0.684-3.53-0.85s-2.325-0.161-3.457,0.015
		c-1.133,0.176-2.179,0.625-3.135,1.348c-0.586,0.488-1.021,1.055-1.304,1.699s-0.425,1.348-0.425,2.109
		c0,1.016,0.205,1.875,0.615,2.578s0.938,1.377,1.582,2.021c1.015,0.742,2.061,1.396,3.135,1.963
		c1.073,0.566,2.153,1.123,3.237,1.67s2.129,1.123,3.135,1.729s1.948,1.309,2.827,2.109c0.78,0.762,1.411,1.611,1.89,2.549
		s0.806,1.909,0.981,2.915s0.19,2.026,0.044,3.062s-0.454,2.021-0.923,2.959c-0.509,1.094-1.221,2.007-2.139,2.739
		c-0.919,0.732-1.919,1.313-3.003,1.743s-2.223,0.737-3.413,0.923c-1.191,0.186-2.325,0.278-3.398,0.278
		c-1.505,0-2.959-0.112-4.365-0.337s-2.794-0.483-4.16-0.776v-3.604c1.523,0.684,3.052,1.24,4.585,1.67s3.109,0.645,4.731,0.645
		c1.152,0,2.187-0.137,3.105-0.41c0.918-0.273,1.699-0.684,2.344-1.23c1.328-1.211,1.992-2.891,1.992-5.039
		c0-0.977-0.21-1.895-0.63-2.754s-0.981-1.582-1.685-2.168c-0.996-0.684-2.032-1.309-3.105-1.875
		c-1.074-0.566-2.139-1.128-3.193-1.685s-2.07-1.143-3.047-1.758c-0.978-0.615-1.865-1.323-2.666-2.124
		c-1.836-1.836-2.754-3.994-2.754-6.475c0-2.852,1.025-5.039,3.076-6.562c0.722-0.566,1.519-1.021,2.388-1.362
		s1.777-0.596,2.725-0.762s1.924-0.259,2.93-0.278s1.992,0.01,2.959,0.088s1.914,0.19,2.842,0.337s1.782,0.308,2.563,0.483V17.796z"
		/>
	<path fill="#475DA9" d="M330.916,31.36c-1.211-2.07-2.251-3.853-3.119-5.347c-0.869-1.494-1.611-2.764-2.227-3.809
		s-1.113-1.89-1.494-2.534s-0.699-1.172-0.953-1.582s-0.459-0.728-0.615-0.952s-0.303-0.444-0.439-0.659
		c-0.312-0.332-0.82-0.63-1.523-0.894s-1.66-0.532-2.871-0.806v-1.406h8.408l7.734,13.506l8.174-13.506h4.189l-11.104,18.135v18.223
		h-4.16V31.36z"/>
	<path fill="#475DA9" d="M373.519,17.796c-1.055-0.43-2.172-0.845-3.354-1.245s-2.359-0.684-3.531-0.85s-2.324-0.161-3.457,0.015
		s-2.178,0.625-3.135,1.348c-0.585,0.488-1.021,1.055-1.304,1.699s-0.424,1.348-0.424,2.109c0,1.016,0.205,1.875,0.615,2.578
		s0.937,1.377,1.581,2.021c1.016,0.742,2.061,1.396,3.135,1.963s2.154,1.123,3.238,1.67s2.129,1.123,3.135,1.729
		s1.947,1.309,2.826,2.109c0.781,0.762,1.412,1.611,1.891,2.549s0.805,1.909,0.98,2.915s0.191,2.026,0.045,3.062
		s-0.455,2.021-0.924,2.959c-0.508,1.094-1.221,2.007-2.139,2.739s-1.918,1.313-3.002,1.743s-2.223,0.737-3.414,0.923
		s-2.324,0.278-3.398,0.278c-1.504,0-2.959-0.112-4.364-0.337c-1.406-0.225-2.794-0.483-4.16-0.776v-3.604
		c1.523,0.684,3.051,1.24,4.584,1.67c1.534,0.43,3.11,0.645,4.731,0.645c1.152,0,2.188-0.137,3.105-0.41s1.699-0.684,2.344-1.23
		c1.328-1.211,1.992-2.891,1.992-5.039c0-0.977-0.209-1.895-0.629-2.754s-0.982-1.582-1.686-2.168
		c-0.996-0.684-2.031-1.309-3.105-1.875s-2.139-1.128-3.193-1.685s-2.07-1.143-3.046-1.758c-0.978-0.615-1.865-1.323-2.666-2.124
		c-1.836-1.836-2.754-3.994-2.754-6.475c0-2.852,1.025-5.039,3.076-6.562c0.722-0.566,1.518-1.021,2.387-1.362
		s1.778-0.596,2.726-0.762s1.924-0.259,2.93-0.278s1.992,0.01,2.959,0.088s1.914,0.19,2.842,0.337s1.781,0.308,2.562,0.483V17.796z"
		/>
</g>
</svg>
