<?xml version="1.0" encoding="utf-8"?>
<!-- Generator: Adobe Illustrator 16.0.4, SVG Export Plug-In . SVG Version: 6.00 Build 0)  -->
<!DOCTYPE svg PUBLIC "-//W3C//DTD SVG 1.1//EN" "http://www.w3.org/Graphics/SVG/1.1/DTD/svg11.dtd">
<svg version="1.1" id="Layer_1" xmlns="http://www.w3.org/2000/svg" xmlns:xlink="http://www.w3.org/1999/xlink" x="0px" y="0px"
	 width="378.793px" height="198.189px" viewBox="0 0 378.793 198.189" enable-background="new 0 0 378.793 198.189"
	 xml:space="preserve">
<text transform="matrix(1 0 0 1 52.792 133.9434)" fill="#8E0303" font-family="'OpenSans-Bold'" font-size="78" letter-spacing="12">NORTH</text>
<g>
	<path fill="#2B2B2B" d="M8.923,198.189c0.438-10.178,0.108-38.386,0.283-46.833c0.123-5.854,0.064-11.714,0.086-17.571
		c0.001-0.962-0.999-1.924-0.999-2.779c-1.518-0.483-2.899-0.869-4.247-1.36c-3.112-1.134-4.537-4.161-1.389-6.794
		c-0.545-0.57-1.058-1.186-1.648-1.709c-0.5-0.443-0.653-0.881-0.332-1.48c0.083-0.153,0.221-0.414,0.163-0.495
		c-0.58-0.769-0.285-1.62-0.274-2.443c0.001-0.149-0.022-0.323-0.099-0.445c-0.719-1.115-0.66-1.663,0.526-2.129
		c1.635-0.642,2.614-1.979,3.656-2.981c-0.128-0.522-0.277-0.898-0.307-1.278c-0.044-0.625,0.057-1.263-0.027-1.88
		c-0.145-1.063,0.395-1.587,1.313-1.817c1.294-0.321,2.598-0.587,4.014-0.905c-0.172-1.786-0.349-3.62-0.526-5.453
		c-0.002-0.033-0.012-0.061-0.019-0.092c-0.186-0.834,0.24-1.324,0.959-1.592c0.515-0.189,1.06-0.296,1.617-0.446
		c0-0.438,0-0.812,0-1.187c0-10.555-0.005-21.111,0.01-31.668c0-0.952-0.001-1.832-0.779-2.563c-0.622-0.587-0.545-1.31-0.002-1.936
		c0.572-0.659,1.143-1.335,1.798-1.907c0.5-0.432,0.669-0.877,0.667-1.526c-0.023-6.64-0.023-13.281,0-19.92
		c0.002-0.506,0.205-1.018,0.349-1.514c0.103-0.36,0.378-0.697,0.383-1.043c0.037-2.225-0.025-4.45,0.048-6.672
		c0.022-0.641,0.378-1.275,0.608-1.901c0.139-0.374,0.466-0.725,0.47-1.089c0.039-5.98,0.033-11.963,0.061-17.944
		c0.002-0.482,0.167-0.966,0.284-1.446c0.121-0.496,0.355-0.979,0.397-1.479c0.109-1.298,0.14-2.604,0.2-3.908
		c0.251,0,0.502,0,0.753,0C17,1.364,17.075,2.729,17.163,4.09c0.023,0.334,0.071,0.67,0.151,0.996
		c0.16,0.642,0.501,1.277,0.505,1.923c0.04,5.886,0.02,11.773,0.033,17.661c0.003,0.344,0.042,0.849,0.26,1.003
		c0.752,0.527,0.867,1.257,0.869,2.056c0.008,2.255,0.002,4.512,0.006,6.765c0.002,0.249-0.052,0.637,0.077,0.722
		c0.966,0.631,0.711,1.604,0.715,2.47c0.02,5.982,0.057,11.967-0.021,17.947c-0.021,1.507,0.185,2.739,1.511,3.619
		c0.276,0.185,0.477,0.495,0.695,0.76c0.917,1.132,0.881,1.544,0.005,2.704c-0.29,0.38-0.518,0.923-0.519,1.394
		c-0.029,10.9-0.022,21.799-0.022,32.697c0,0.307,0,0.612,0,0.965c0.439,0.084,0.839,0.084,1.16,0.238
		c0.489,0.238,1.265,0.532,1.318,0.893c0.174,1.186,0.458,2.593-0.014,3.57c-0.511,1.06-0.194,1.962-0.404,2.883
		c1.143,0.212,2.195,0.357,3.22,0.614c2.003,0.501,2.104,0.665,2.104,2.726c0,0.345,0.038,0.696-0.009,1.033
		c-0.063,0.448-0.191,0.889-0.315,1.432c1.066,1.09,2.098,2.417,3.758,3.071c1.053,0.415,1.11,1.049,0.462,2.062
		c-0.092,0.146-0.177,0.382-0.122,0.52c0.446,1.137-0.673,2.281,0.033,3.425c0.08,0.132-0.156,0.511-0.316,0.724
		c-0.537,0.706-1.105,1.387-1.681,2.106c-0.11-0.082-0.006-0.012,0.091,0.068c2.575,2.142,1.605,5.152-1.092,6.271
		c-1.15,0.48-2.331,0.938-3.543,1.18c-1.067,0.211-2.303,0.691-2.288,1.699c0.144,9.892,0.206,19.786,0.362,29.673
		c0.075,4.693-0.168,31.547,0.053,36.231"/>
</g>
<text transform="matrix(1 0 0 1 55.1255 195.6895)" fill="#475DA9" font-family="'Nooa-SemiReg'" font-size="54" letter-spacing="3">BOARDROOM</text>
<text transform="matrix(1 0 0 1 53.792 50.0225)" fill="#475DA9" font-family="'Nooa-SemiReg'" font-size="60" letter-spacing="4">CONSENSYS</text>
</svg>
